<svg xmlns="http://www.w3.org/2000/svg" viewBox="0 0 220 100"><path fill="#222426" fill-rule="evenodd" d="M184.46 50.2c0 2.55 1.75 4.64 4.5 4.64 2.68 0 4.48-2.01 4.48-4.65 0-2.65-1.8-4.66-4.48-4.66-2.75 0-4.5 2.08-4.5 4.66zm8.82-6.61V41.6H198v16.26c0 5.7-3.74 9.13-9.65 9.13-2.82 0-5.81-.73-7.82-2.14l1.71-3.9a10.63 10.63 0 0 0 5.9 1.81c3 0 5.1-1.64 5.1-4.7v-1.24c-1.22 1.48-3.03 2.4-5.5 2.4-4.35 0-8.23-3.6-8.23-9.04 0-5.45 3.88-9.05 8.23-9.05 2.5 0 4.32.95 5.54 2.45zM164 50.47c0 2.7 1.79 4.88 4.6 4.88 2.76 0 4.62-2.09 4.62-4.88 0-2.8-1.86-4.89-4.61-4.89-2.82 0-4.61 2.18-4.61 4.89zm13.78 8.87h-4.7v-1.96a6.58 6.58 0 0 1-5.36 2.41c-4.92 0-8.65-4-8.65-9.32 0-5.33 3.73-9.33 8.65-9.33 2.46 0 4.17.99 5.35 2.43v-1.96h4.7v17.73zm-20.3-11.29v11.29h-4.81v-9.75c0-2.56-1.3-3.97-3.49-3.97-2.07 0-3.78 1.33-3.78 4v9.72h-4.82V41.6h4.69v2.09c1.27-1.88 3.23-2.56 5.26-2.56 4.06 0 6.95 2.8 6.95 6.91zm-20.57-1.5a14.51 14.51 0 0 0-5.7-1.44c-1.82 0-2.75.64-2.75 1.6 0 1.03 1.3 1.29 2.92 1.52l1.58.24c3.88.59 6.04 2.3 6.04 5.3 0 3.66-3.03 6.02-8.21 6.02-2.44 0-5.63-.45-7.95-2.08l1.9-3.62c1.53 1 3.39 1.73 6.08 1.73 2.24 0 3.3-.62 3.3-1.66 0-.86-.9-1.33-2.96-1.63l-1.46-.2c-4.13-.57-6.18-2.36-6.18-5.38 0-3.64 2.84-5.8 7.54-5.8 2.86 0 5.1.54 7.48 1.69l-1.63 3.71zm-29.2 3.64c0 2.56 1.75 4.65 4.5 4.65 2.67 0 4.48-2.01 4.48-4.65 0-2.65-1.8-4.66-4.48-4.66-2.75 0-4.5 2.08-4.5 4.66zm8.82-6.6V41.6h4.72v16.26c0 5.7-3.75 9.13-9.65 9.13-2.82 0-5.81-.73-7.82-2.14l1.71-3.9a10.63 10.63 0 0 0 5.9 1.81c3 0 5.1-1.64 5.1-4.7v-1.24c-1.22 1.48-3.03 2.4-5.5 2.4-4.35 0-8.23-3.6-8.23-9.04 0-5.45 3.88-9.05 8.23-9.05 2.5 0 4.32.95 5.54 2.45zm-15.36 8.2c0 5.59-3.98 8-8.45 8-4.48 0-8.46-2.41-8.46-8V41.6h4.81v9.75c0 2.84 1.57 3.99 3.65 3.99 2.07 0 3.66-1.15 3.66-3.99v-9.75h4.8v10.17zm-32.63-1.32c0 2.8 1.86 4.88 4.6 4.88 2.83 0 4.6-2.18 4.6-4.88 0-2.71-1.77-4.89-4.6-4.89-2.74 0-4.6 2.09-4.6 4.89zm14.15 0c0 5.32-3.73 9.32-8.66 9.32a6.56 6.56 0 0 1-5.35-2.41v1.96h-4.7V33h4.8v10.46a6.48 6.48 0 0 1 5.24-2.32c4.94 0 8.67 4 8.67 9.33zM22 48.96l2.75-6.1a18.1 18.1 0 0 1 10.82 16.52h-6.75c0-4.64-2.8-8.64-6.82-10.42zm18.06-6.08l5.44-3.94a34.3 34.3 0 0 1 6.74 20.46H45.5a27.7 27.7 0 0 0-5.44-16.52zm3.85 16.5v.01h-6.75c0-6.02-2.72-11.4-7-15l4.37-5.1a26.21 26.21 0 0 1 9.38 20.1z"></path></svg>