<svg xmlns="http://www.w3.org/2000/svg" viewBox="0 0 220 100"><path fill="#222426" d="M36.77 70A6.76 6.76 0 0 1 30 63.1V36.9a6.76 6.76 0 0 1 7.54-6.86l21.61 2.33c3.12.34 5.56 3.36 5.56 6.87v21.52c0 3.51-2.44 6.53-5.56 6.86l-21.6 2.34c-.27.03-.52.04-.78.04zm0-36.73c-1.97 0-3.46 1.56-3.46 3.63v26.2c0 2.07 1.49 3.63 3.46 3.63l.42-.03 21.6-2.33c1.42-.15 2.62-1.81 2.62-3.62v-21.5c0-1.81-1.2-3.47-2.62-3.62L37.2 33.3a3.86 3.86 0 0 0-.42-.03zm19.78 8.65a3.3 3.3 0 0 1-1.17 3.25c-.17.13-.16.3-.17.47a9.54 9.54 0 0 1-.7 3.48 6.89 6.89 0 0 1-3.06 3.36c-1.08.62-2.26 1.02-3.43 1.5-.53.2-1.04.45-1.55.7-.77.39-1.14 1.05-1.18 1.96-.02.4.04.66.37.92 1.01.8 1.39 1.95 1.12 3.3a3.47 3.47 0 0 1-2.36 2.76 3 3 0 0 1-3.78-1.7 3.72 3.72 0 0 1 1.2-4.35c.16-.1.2-.22.2-.4V42.82c0-.19-.06-.29-.2-.4a3.6 3.6 0 0 1-1.43-3.37 2.97 2.97 0 0 1 2.21-2.73c1.55-.45 3.23.45 3.93 2.04a3.46 3.46 0 0 1-1.08 4.24c-.11.07-.19.15-.19.32v8.4l.02.2c.2-.09.4-.19.59-.26.98-.38 1.95-.72 2.9-1.1.52-.2 1.03-.44 1.52-.7a3.91 3.91 0 0 0 2-3.25c.03-.25.03-.5.05-.73a.4.4 0 0 0-.17-.4 3.6 3.6 0 0 1-.98-4.23 2.68 2.68 0 0 1 2.93-1.58c1.25.26 2.19 1.43 2.4 2.65zm-2.76 2.16c.79.04 1.42-.66 1.42-1.55 0-.88-.63-1.63-1.4-1.68-.8-.04-1.44.64-1.44 1.54s.64 1.65 1.42 1.69zm-10.1-2.69c.88.05 1.59-.69 1.59-1.62 0-.94-.72-1.75-1.6-1.82-.9-.06-1.63.66-1.63 1.61 0 .97.74 1.79 1.64 1.83zm0 20.66c.89-.08 1.6-.9 1.6-1.83-.01-.94-.73-1.66-1.61-1.61a1.8 1.8 0 0 0-1.63 1.81c0 .97.74 1.7 1.65 1.63zm130.45.62V37.02h7.07v19.7H190v6h-15.86v-.05l.04.04h-8.83l-7.93-11.53v11.53h-7V37.02h7V48.7l8.2-11.67h8.24l-9.58 12.53 9.86 13.12zm-92.78.04L70.48 37.02h7.51l5.2 14.37.29 1.1.57 2.34a108.69 108.69 0 0 1 .9-3.44l5.16-14.37h7.52l-10.88 25.7h-5.39zm16.3 0V37.02h15.9v5.64h-9v4.45h9v5.51h-9v4.34h9v5.75h-15.9zm17.9 0V37.02h7.07v9.99h9.42v-9.99h7.1v25.7h-7.1V52.25h-9.42V62.7h-7.07zm25.64 0V37.02h7.15v25.7h-7.15z"/></svg>