<svg xmlns="http://www.w3.org/2000/svg" viewBox="0 0 220 99"><path fill="#202123" d="M43.86 36.38L49 49h-3.9l-2.2-5.46-2.07-4.96h-4.04c-.96 0-1.79-.83-1.79-1.79 0-.96.78-1.79 1.79-1.79h5.05c.92 0 1.7.55 2.02 1.38zM65.5 35c.7 0 1.24.18 1.57.57.33.38.52.76.52 1.19 0 .43-.04.72-.14.9L57.11 62.95c-.57 1.3-1.47 1.96-2.6 1.96h-.91c-1.14 0-2.04-.67-2.61-1.96L47 53.17h3.94l3.09 7.87 9.88-24.76c.37-.86.88-1.28 1.6-1.28zm10.82 0c.52 0 1 .18 1.38.57.38.38.56.86.56 1.38v16.56c0 2.53.86 4.47 2.57 5.9a8.7 8.7 0 0 0 5.7 1.97 8.7 8.7 0 0 0 5.69-1.97c1.7-1.43 2.56-3.37 2.56-5.9V36.95c0-.52.19-1 .57-1.38.24-.39.66-.57 1.23-.57.52 0 1 .18 1.38.57.38.38.58.86.58 1.38v16.41c0 3.67-1.34 6.58-3.95 8.67a12.4 12.4 0 0 1-8.11 2.78c-3.18 0-5.94-.96-8.17-2.78-2.61-2.1-3.89-5-3.89-8.67v-16.4c0-.53.19-1.01.57-1.4a1.8 1.8 0 0 1 1.33-.56zm56.38 0h20.97a1.8 1.8 0 0 1 1.8 1.82c.01.52-.2.9-.52 1.28-.34.33-.76.52-1.28.52h-8.54V63.1c0 .53-.18 1-.56 1.33-.38.38-.86.58-1.38.58-.53 0-1-.2-1.34-.58-.38-.38-.56-.8-.56-1.33V38.62h-8.59c-.52 0-.9-.19-1.29-.52a1.75 1.75 0 0 1-.52-1.28 1.78 1.78 0 0 1 1.81-1.82zm-22.4.04c.52 0 1 .2 1.37.59.38.38.57.84.57 1.37v24.14h13.67v-.06c.52 0 1 .2 1.38.58.38.38.56.86.56 1.39 0 .52-.18.99-.56 1.32-.38.39-.86.53-1.38.53h-14.9a2.5 2.5 0 0 1-1.86-.76 2.53 2.53 0 0 1-.75-1.87V37c0-.53.2-1 .58-1.37.38-.39.8-.59 1.32-.59zm53.14 0h9.97c3.89 0 6.83.72 8.82 2.39a7.7 7.7 0 0 1 2.76 6.2c0 1.67-.48 3.2-1.38 4.63a8.05 8.05 0 0 1-4.23 3.15c2.05.52 3.57 2 4.42 4.42.62 1.63.9 3.4.9 5.31v1.8c0 .58-.19 1-.57 1.39-.38.38-.85.57-1.42.57s-1.04-.2-1.37-.53a1.93 1.93 0 0 1-.53-1.38v-1.13c0-2.34-.24-4.02-.76-5.12a6.6 6.6 0 0 0-2.09-2.57c-.85-.62-2.18-.57-3.8-.57h-8.39v9.2c0 1.2-.95 2.16-2.13 2.16a2.1 2.1 0 0 1-2.14-2.1V37c0-.53.18-1 .56-1.37.38-.39.86-.59 1.38-.59zm2.38 4.16v10.02h7.3c2.28 0 4.13-.44 5.5-1.34a4.25 4.25 0 0 0 2.1-3.82c0-1.57-.53-2.72-1.62-3.53-1.33-.9-3.37-1.33-6.17-1.33h-7.11z"/></svg>