<svg xmlns="http://www.w3.org/2000/svg" viewBox="0 0 220 100"><g fill="#222426" transform="translate(15 32)"><path d="M28.5 8.3c.72.42 1.32 1.43 1.32 2.27v14.19c0 .83-.6 1.86-1.31 2.27l-12.3 7.1c-.72.41-1.9.41-2.63 0L1.31 27.03A2.91 2.91 0 0 1 0 24.76V10.57c0-.83.6-1.85 1.3-2.27l12.3-7.1c.72-.41 1.9-.41 2.62 0L28.5 8.3zm-4.11 9.97v-1.2a.63.63 0 0 0-.63-.62h-3.94a3.68 3.68 0 0 1-3.69-3.7V8.83a.63.63 0 0 0-.62-.64h-1.2a.63.63 0 0 0-.62.63v3.94A3.68 3.68 0 0 1 10 16.44H6.06a.63.63 0 0 0-.63.63v1.2c0 .34.28.62.62.62H10a3.68 3.68 0 0 1 3.7 3.68v3.94c0 .36.27.64.62.64h1.19c.36 0 .63-.28.63-.63v-3.94a3.68 3.68 0 0 1 3.68-3.69h3.94c.36 0 .64-.28.64-.62zm32.2 7.04v2.42h-7.78v-2.42h2.53V12.27h-3.7v3.47h-2.69v-5.9h15.52v5.92h-2.69v-3.5h-3.7V25.3h2.5l.02.01zm18.68 0v2.42h-7.74v-2.42h2.5V12.27h-2.5V9.85h7.74v2.43h-2.51V25.3h2.5zm17.84-9.85c-.04-2.11-.12-2.62-.33-2.83-.15-.15-.36-.23-1.12-.23h-4.6c-.79 0-.97.05-1.15.23-.26.26-.36 1-.36 6.16s.1 5.91.36 6.16c.18.18.36.23 1.15.23h4.73c.71 0 .96-.05 1.15-.23.2-.2.33-1 .33-3.25v-.9h-3.76v-2.34h6.54v2.69c0 3.94-.25 5-1.04 5.8-.6.58-1.36.79-2.78.79h-5.76c-1.52 0-2.12-.18-2.65-.72-.9-.9-1.23-2.2-1.23-8.24 0-6.02.33-7.32 1.23-8.21.53-.54 1.12-.72 2.65-.72h5.62c1.46 0 2.28.2 2.74.66.8.83 1.02 1.8 1.08 4.96h-2.8zm25.39 9.85h2.4v2.42h-7.54v-2.42h2.4v-5.67h-7.25v5.67h2.4v2.42h-7.54v-2.42h2.4V12.27h-2.4V9.85h7.54v2.43h-2.4v5.01h7.25v-5.01h-2.4V9.85h7.54v2.43h-2.4V25.3zm21.05 0v2.42h-7.79v-2.42h2.53V12.27h-3.7v3.47h-2.7v-5.9h15.52v5.92h-2.68v-3.5h-3.7V25.3h2.52v.01zm10.86-13.03V9.85h14v5.39h-2.7v-2.96h-6.17v5h4.8v2.36h-4.8v5.67h6.39v-3.35h2.69v5.78H150.4V25.3h2.4V12.27h-2.4zm34.56 0h-2.4V9.85h7.34v2.43h-2.35v15.46h-3.27c-.75 0-.9-.15-1.2-.85l-5.98-13.75h-.39v12.17h2.4v2.42h-7.38v-2.42h2.4V12.27h-2.4V9.85h5.93c.73 0 .9.15 1.2.84l5.72 13.14h.39V12.28h-.01z"/></g></svg>